<?xml version="1.0" encoding="UTF-8" standalone="no"?>
<svg
   xmlns:dc="http://purl.org/dc/elements/1.1/"
   xmlns:cc="http://creativecommons.org/ns#"
   xmlns:rdf="http://www.w3.org/1999/02/22-rdf-syntax-ns#"
   xmlns:svg="http://www.w3.org/2000/svg"
   xmlns="http://www.w3.org/2000/svg"
   xmlns:sodipodi="http://sodipodi.sourceforge.net/DTD/sodipodi-0.dtd"
   xmlns:inkscape="http://www.inkscape.org/namespaces/inkscape"
   version="1.1"
   id="Ebene_1"
   x="0px"
   y="0px"
   width="32"
   height="32"
   viewBox="0 0 32 32"
   enable-background="new 0 0 612 792"
   xml:space="preserve"
   sodipodi:docname="xvmp_logo_outlined.svg"
   inkscape:version="0.92.3 (2405546, 2018-03-11)"><metadata
   id="metadata9"><rdf:RDF><cc:Work
       rdf:about=""><dc:format>image/svg+xml</dc:format><dc:type
         rdf:resource="http://purl.org/dc/dcmitype/StillImage" /><dc:title></dc:title></cc:Work></rdf:RDF></metadata><defs
   id="defs7" /><sodipodi:namedview
   pagecolor="#ffffff"
   bordercolor="#666666"
   borderopacity="1"
   objecttolerance="10"
   gridtolerance="10"
   guidetolerance="10"
   inkscape:pageopacity="0"
   inkscape:pageshadow="2"
   inkscape:window-width="1853"
   inkscape:window-height="1025"
   id="namedview5"
   showgrid="false"
   inkscape:zoom="13.485026"
   inkscape:cx="12.315264"
   inkscape:cy="8.9404729"
   inkscape:window-x="67"
   inkscape:window-y="147"
   inkscape:window-maximized="1"
   inkscape:current-layer="Ebene_1" />
<path
   style="fill:none;fill-opacity:1;stroke:#ffffff;stroke-width:1;stroke-miterlimit:4;stroke-dasharray:none;stroke-opacity:1"
   d="M 15.432853,28.111702 C 11.920467,27.472172 6.5336676,21.990488 3.7393492,16.212207 2.8096983,14.289812 2.7197328,13.406424 3.416686,13.044054 c 1.2925976,-0.672076 2.7395108,0.397677 6.4290295,4.753162 3.6084625,4.259804 3.7763045,4.324859 4.5741475,1.772969 1.18243,-3.781946 1.900317,-5.640319 2.805841,-7.263406 3.08941,-5.5375076 8.348685,-9.5039339 10.884559,-8.2088711 0.739757,0.3777852 0.712353,0.4187343 -2.025046,3.0267953 -3.789591,3.6105378 -5.307708,7.0863078 -6.446926,14.7604168 -0.892033,6.009016 -1.385732,6.739975 -4.205438,6.226582 z m 1.889382,-0.260088 c 1.027083,-0.305058 1.434562,-1.394572 2.017027,-5.393064 1.292561,-8.873035 2.791354,-12.092919 7.690287,-16.5211407 1.529052,-1.3821351 1.581051,-1.5967603 0.444006,-1.8328385 -2.266698,-0.4706319 -6.370611,2.5805816 -9.158459,6.8092082 -1.413724,2.144345 -2.329187,4.304031 -3.648348,8.606922 -0.909125,2.965436 -1.232653,2.858184 -5.0813855,-1.684422 -3.6516606,-4.310021 -5.2276824,-5.441323 -6.2682687,-4.499483 -0.6317146,0.571774 0.9883355,4.062982 3.3852936,7.29529 3.9246666,5.292426 7.9331876,8.017476 10.6198476,7.219528 z m 7.985355,0.168226 c -1.301816,-0.417533 -1.720831,-1.700159 -1.719679,-5.263962 0.0023,-5.939051 1.216557,-9.996859 3.167312,-10.581406 1.907148,-0.571474 2.216391,1.963285 1.544862,12.662736 -0.175682,2.799049 -1.10543,3.787876 -2.992495,3.182632 z m 1.613124,-0.255022 c 0.86392,-0.361026 1.075397,-0.959787 1.20993,-3.425733 0.553549,-10.146754 0.395741,-11.989832 -1.02665,-11.989832 -1.299499,0 -2.742379,2.882483 -3.12554,6.243978 -0.792441,6.952236 0.276846,10.28541 2.94226,9.171587 z"
   id="path819"
   inkscape:connector-curvature="0" />
</svg>