<?xml version="1.0" encoding="UTF-8" standalone="no"?>
<!-- Created with Inkscape (http://www.inkscape.org/) -->

<svg
   xmlns:dc="http://purl.org/dc/elements/1.1/"
   xmlns:cc="http://creativecommons.org/ns#"
   xmlns:rdf="http://www.w3.org/1999/02/22-rdf-syntax-ns#"
   xmlns:svg="http://www.w3.org/2000/svg"
   xmlns="http://www.w3.org/2000/svg"
   xmlns:sodipodi="http://sodipodi.sourceforge.net/DTD/sodipodi-0.dtd"
   xmlns:inkscape="http://www.inkscape.org/namespaces/inkscape"
   version="1.1"
   id="svg2"
   width="32"
   height="32"
   viewBox="0 0 32 32"
   sodipodi:docname="not_available.svg"
   inkscape:version="0.92.3 (2405546, 2018-03-11)">
  <metadata
     id="metadata8">
    <rdf:RDF>
      <cc:Work
         rdf:about="">
        <dc:format>image/svg+xml</dc:format>
        <dc:type
           rdf:resource="http://purl.org/dc/dcmitype/StillImage" />
        <dc:title></dc:title>
      </cc:Work>
    </rdf:RDF>
  </metadata>
  <defs
     id="defs6" />
  <sodipodi:namedview
     pagecolor="#ffffff"
     bordercolor="#666666"
     borderopacity="1"
     objecttolerance="10"
     gridtolerance="10"
     guidetolerance="10"
     inkscape:pageopacity="0"
     inkscape:pageshadow="2"
     inkscape:window-width="1853"
     inkscape:window-height="1025"
     id="namedview4"
     showgrid="false"
     inkscape:zoom="21.115384"
     inkscape:cx="18.779152"
     inkscape:cy="12.59556"
     inkscape:window-x="67"
     inkscape:window-y="27"
     inkscape:window-maximized="1"
     inkscape:current-layer="svg2" />
  <path
     style="fill:#ffffff;fill-opacity:1;stroke-width:1"
     d="M 14.406851,31.617753 C 7.390153,30.995243 1.6136932,25.715073 0.37295293,18.789559 c -0.2616434,-1.460349 -0.2616434,-4.120552 0,-5.580901 C 1.5195916,6.808409 6.6255759,1.7024403 13.02581,0.55578542 c 1.460347,-0.2616273 4.120567,-0.2616273 5.580916,0 6.40025,1.14665488 11.506218,6.25262358 12.652873,12.65287258 0.118943,0.663962 0.199968,1.794508 0.199968,2.790459 0,1.93737 -0.228375,3.404946 -0.78164,5.022805 -2.356363,6.890528 -9.032436,11.238044 -16.271076,10.595831 z m 4.006778,-2.471061 c 1.409141,-0.287166 2.59655,-0.709238 3.727682,-1.325038 0.95944,-0.522347 2.356378,-1.498413 2.356378,-1.646461 0,-0.137093 -18.8386829,-18.5366263 -19.0257031,-18.5822747 -0.14714,-0.035972 -1.2079902,1.4978786 -1.6678188,2.4113447 -1.6499937,3.277804 -1.8273882,7.47293 -0.4614655,10.913284 2.3843487,6.005451 8.7979994,9.507496 15.0709274,8.229145 z m 8.524786,-5.675359 c 1.10906,-1.691769 1.634469,-2.956298 2.025443,-4.874872 0.650544,-3.192305 0.03257,-6.703879 -1.677412,-9.5326131 C 23.473883,2.7571326 15.187519,0.70905082 8.8992942,4.5192152 8.3722152,4.8385641 7.7456549,5.2616726 7.5069089,5.4594204 L 7.0728459,5.8189897 8.1890194,6.9375616 C 11.57392,10.329689 26.067826,24.419981 26.178116,24.425718 c 0.07163,0.0032 0.413726,-0.42575 0.760299,-0.954385 z"
     id="path821"
     inkscape:connector-curvature="0" />
</svg>
